<?xml version="1.0" encoding="utf-8"?>
<svg width="402" height="874" viewBox="0 0 402 874" fill="none" xmlns="http://www.w3.org/2000/svg">
  <defs>
    <clipPath id="clip_path_1">
      <rect width="402" height="874" rx="25" />
    </clipPath>
    <linearGradient id="gradient_2" gradientUnits="userSpaceOnUse" x1="175" y1="0" x2="175" y2="404">
      <stop offset="0" stop-color="#FFFFFF" stop-opacity="0" />
      <stop offset="1" stop-color="#C5E4BD" />
    </linearGradient>
    <linearGradient id="gradient_3" gradientUnits="userSpaceOnUse" x1="175" y1="45.684" x2="175" y2="404">
      <stop offset="0" stop-color="#FFFFFF" stop-opacity="0" />
      <stop offset="1" stop-color="#FFFFFF" />
    </linearGradient>
  </defs>
  <g clip-path="url(#clip_path_1)">
    <g fill="url(#gradient_2)" transform="translate(26 143)">
      <path d="M350 0L350 0L350 384C350 395.047 341.047 404 330 404L20 404C8.9528 404 0 395.047 0 384L0 0L350 0Z" />
      <path d="M350 2L350 0L0 0L0 384C0 395.047 8.9528 404 20 404L330 404C341.047 404 350 395.047 350 384L350 2ZM348 2L348 384Q348 391.457 342.728 396.729Q337.457 402 330 402L20 402Q12.5431 402 7.27151 396.729Q2 391.457 2 384L2 2L348 2Z" fill="url(#gradient_3)" fill-rule="evenodd" />
    </g>
  </g>
</svg>